<svg id="Layer_1" xmlns="http://www.w3.org/2000/svg" viewBox="0 0 259.9 51.8"><style>.st0{fill:#fff}</style><path id="path0_fill_1_" class="st0" d="M94.4 30.7L90 47h-4.7l-2.9-10.6L79.5 47h-4.7l-4.4-16.3h4.4l2.5 11.2 3-11.2h4.2l2.9 11.2L90 30.7h4.4zm14.7 10.9H100c.1 1 .4 1.7 1.1 2.2.7.5 1.7.8 3 .8.8 0 1.6-.2 2.4-.5.8-.3 1.4-.6 1.9-1h.4v3.2c-.9.4-1.7.6-2.5.8-.8.2-1.7.2-2.6.2-2.5 0-4.4-.6-5.7-1.7-1.3-1.1-2-2.7-2-4.8 0-2 .6-3.6 1.9-4.8 1.3-1.2 3-1.8 5.1-1.8 2 0 3.5.5 4.5 1.5s1.5 2.5 1.5 4.4v1.5zm-3.9-2.3c0-.8-.2-1.4-.6-1.9-.4-.4-1-.6-1.8-.6s-1.4.2-1.9.6c-.5.4-.8 1-.8 1.9h5.1zm19.6 1.4c0 1.9-.5 3.5-1.6 4.7-1.1 1.2-2.4 1.8-4 1.8-.7 0-1.3-.1-1.8-.2s-1-.4-1.5-.6l-.2.6h-3.8V30h4v6c.6-.5 1.2-.9 1.9-1.2.6-.3 1.4-.4 2.2-.4 1.6 0 2.8.6 3.6 1.7.8 1.1 1.2 2.6 1.2 4.6zm-4.1.1c0-1.1-.2-1.9-.6-2.5-.4-.6-1-.9-2-.9-.4 0-.8.1-1.2.2-.4.1-.8.3-1.1.5v6.2c.3.1.6.2.8.2.3 0 .6.1.9.1 1 0 1.8-.3 2.3-.9.7-.8.9-1.7.9-2.9zm17.7 2.3c0 1.3-.6 2.3-1.7 3.1-1.1.8-2.7 1.2-4.7 1.2-1.1 0-2.1-.1-3-.3-.9-.2-1.6-.4-2.2-.7v-3.2h.4c.2.1.4.3.7.5.3.2.6.3 1.1.5.4.2.9.3 1.4.4.5.1 1.1.2 1.7.2.8 0 1.4-.1 1.7-.3.4-.2.6-.4.6-.8 0-.3-.1-.5-.3-.6-.2-.1-.6-.3-1.3-.4-.3-.1-.7-.1-1.2-.2s-1-.2-1.4-.3c-1.1-.3-2-.7-2.5-1.4-.5-.6-.8-1.4-.8-2.3 0-1.2.6-2.2 1.7-3 1.1-.8 2.7-1.2 4.6-1.2.9 0 1.8.1 2.6.3.8.2 1.5.4 2 .6v3.1h-.3c-.6-.4-1.3-.7-2-1-.7-.3-1.5-.4-2.3-.4-.6 0-1.2.1-1.6.3-.4.2-.6.4-.6.7 0 .3.1.5.3.7.2.2.7.3 1.4.5.4.1.8.2 1.3.2.5.1.9.2 1.4.3 1 .3 1.8.7 2.3 1.3.4.6.7 1.4.7 2.2zM145 47h-4V34.7h4V47zm.1-14h-4.2v-3h4.2v3zm11.5 13.9c-.4.1-.9.2-1.4.3-.5.1-1.1.1-1.7.1-1.5 0-2.7-.3-3.4-.9-.7-.6-1.1-1.7-1.1-3.2v-5.8h-1.6v-2.7h1.6v-3.5h4v3.5h3.7v2.7H153v5.5c0 .3.1.6.2.9.1.3.3.5.5.6.3.1.6.2 1.1.2.2 0 .5 0 .8-.1.3-.1.6-.2.7-.2h.3v2.6zm14.5-5.3H162c.1 1 .4 1.7 1.1 2.2.7.5 1.7.8 3 .8.8 0 1.6-.2 2.4-.5.8-.3 1.4-.6 1.9-1h.4v3.2c-.9.4-1.7.6-2.5.8-.8.2-1.7.2-2.6.2-2.5 0-4.4-.6-5.7-1.7-1.3-1.1-2-2.7-2-4.8 0-2 .6-3.6 1.9-4.8 1.3-1.2 3-1.8 5.1-1.8 2 0 3.5.5 4.5 1.5s1.5 2.5 1.5 4.4v1.5zm-3.9-2.3c0-.8-.2-1.4-.6-1.9-.4-.4-1-.6-1.8-.6s-1.4.2-1.9.6c-.5.4-.8 1-.8 1.9h5.1zm14.3 8.1c-1.2 0-2.3-.2-3.4-.5-1-.4-1.9-.9-2.6-1.6-.7-.7-1.3-1.6-1.7-2.7-.4-1.1-.6-2.3-.6-3.7 0-1.3.2-2.5.6-3.5.4-1.1 1-2 1.7-2.7.7-.7 1.6-1.3 2.6-1.7 1.1-.4 2.2-.6 3.4-.6.7 0 1.3 0 1.9.1.6.1 1.1.2 1.5.3.5.1.9.3 1.3.5s.8.3 1.1.5v4h-.5c-.2-.2-.5-.4-.8-.6-.3-.2-.7-.5-1.1-.7-.4-.2-.8-.4-1.3-.6-.5-.2-1-.2-1.5-.2-.6 0-1.2.1-1.7.3-.5.2-1 .5-1.5.9-.4.4-.8 1-1.1 1.7-.3.7-.4 1.5-.4 2.5s.1 1.9.4 2.6a5 5 0 0 0 1.1 1.6c.4.4.9.7 1.5.9.5.2 1.1.3 1.6.3s1-.1 1.5-.2c.5-.2 1-.4 1.4-.6.4-.2.7-.4 1-.7.3-.2.6-.4.8-.6h.4V46c-.4.2-.8.4-1.2.5-.4.2-.8.3-1.2.4-.5.2-1 .3-1.5.4-.2 0-.9.1-1.7.1zm16.1-3.6v-2.6c-.5 0-1.1.1-1.7.2-.6.1-1.1.2-1.4.3-.4.1-.7.3-.9.5-.2.2-.3.5-.3.9 0 .3 0 .5.1.6 0 .2.2.3.3.5.2.1.4.3.6.3.2.1.6.1 1.1.1.4 0 .8-.1 1.2-.2.4-.1.7-.3 1-.6zm0 1.9c-.2.2-.5.4-.8.6-.3.2-.6.4-.9.5-.4.2-.8.3-1.2.4-.4.1-.9.1-1.4.1-1.2 0-2.2-.4-2.9-1.1s-1.2-1.6-1.2-2.8c0-.9.2-1.6.6-2.2.4-.6 1-1 1.7-1.3.7-.3 1.6-.6 2.7-.7 1.1-.1 2.2-.2 3.4-.3v-.1c0-.7-.3-1.1-.8-1.4-.6-.3-1.4-.4-2.5-.4-.7 0-1.3.1-2.1.4-.7.2-1.3.4-1.6.5h-.4v-3c.4-.1 1.1-.2 2-.4.9-.2 1.9-.2 2.8-.2 2.2 0 3.9.3 4.9 1 1 .7 1.5 1.8 1.5 3.2V47h-3.9v-1.3zm16.5-7.2h-.4c-.2-.1-.4-.1-.8-.1h-.9c-.6 0-1.1 0-1.5.1-.4.1-.9.2-1.4.4V47h-4V34.7h4v1.8c.9-.7 1.6-1.2 2.3-1.5.6-.2 1.2-.4 1.8-.4h1v3.9zm15.2 2.2c0 1.9-.5 3.5-1.6 4.7-1.1 1.2-2.4 1.8-4 1.8-.7 0-1.3-.1-1.8-.2s-1-.4-1.5-.6l-.2.6h-3.8V30h4v6c.6-.5 1.2-.9 1.9-1.2.6-.3 1.4-.4 2.2-.4 1.6 0 2.8.6 3.6 1.7.7 1.1 1.2 2.6 1.2 4.6zm-4.1.1c0-1.1-.2-1.9-.6-2.5-.4-.6-1-.9-2-.9-.4 0-.8.1-1.2.2-.4.1-.8.3-1.1.5v6.2c.3.1.6.2.8.2.3 0 .6.1.9.1 1 0 1.8-.3 2.3-.9.6-.8.9-1.7.9-2.9zm19.5.1c0 2-.6 3.6-1.8 4.8-1.2 1.2-2.8 1.7-5 1.7-2.1 0-3.8-.6-5-1.7-1.2-1.2-1.8-2.8-1.8-4.8s.6-3.6 1.8-4.8c1.2-1.2 2.9-1.7 5-1.7 2.2 0 3.8.6 5 1.8 1.2 1.1 1.8 2.7 1.8 4.7zm-4.8 3c.3-.3.4-.7.6-1.1.1-.4.2-1.1.2-1.8s-.1-1.3-.2-1.8-.3-.9-.5-1.2c-.2-.3-.5-.5-.8-.6-.3-.1-.7-.2-1.1-.2-.4 0-.7.1-1 .2-.3.1-.6.3-.8.6-.2.3-.4.7-.6 1.2-.1.5-.2 1.1-.2 1.9 0 .7.1 1.3.2 1.8s.3.9.5 1.2c.2.3.5.5.8.6.3.1.7.2 1.1.2.4 0 .7-.1 1-.2l.8-.8zm20 3.1h-4v-6.1c0-.5 0-1-.1-1.5s-.1-.9-.3-1.1c-.1-.3-.4-.5-.6-.6-.3-.1-.7-.2-1.2-.2-.4 0-.7.1-1.1.2-.4.1-.8.3-1.2.6V47h-4V34.7h4v1.4c.7-.5 1.4-1 2-1.3.7-.3 1.4-.4 2.2-.4 1.3 0 2.4.4 3.1 1.2.8.8 1.1 1.9 1.1 3.5V47z"/><path id="path1_fill_1_" class="st0" d="M42.2 23.8c-.7-3-2.4-5.7-4.7-7.8-2.8-2.4-6.3-3.8-10-3.8-8.3 0-15.1 6.8-15.1 15.1v.4H12c-6.6 0-12 5.4-12 12.1s5.4 12.1 12.1 12.1h30.1c7.7 0 14-6.3 14-14 .1-7.8-6.2-14.1-14-14.1zm0 24.8H12.1c-4.8 0-8.8-3.9-8.8-8.8 0-4.8 3.9-8.8 8.8-8.8.6 0 1.3.1 1.9.2l2.4.5-.4-2.4c-.1-.7-.2-1.3-.2-2 0-6.5 5.3-11.8 11.8-11.8 5.9 0 10.9 4.4 11.7 10.2l.2 1.6 1.6-.2c.4 0 .8-.1 1.2-.1C48.2 27 53 31.8 53 37.7c0 6-4.9 10.9-10.8 10.9z"/><path id="path2_fill_1_" class="st0" d="M25.5 39c-.1.3-.3.6-.5.8-.2.2-.4.4-.7.5-.3.1-.5.2-.8.3-.3.1-.5.1-.8.1-.5 0-1-.1-1.4-.3-.4-.2-.8-.5-1.1-.8-.3-.4-.5-.8-.7-1.2-.2-.5-.2-.9-.2-1.4 0-.5.1-.9.2-1.4.1-.5.3-.9.6-1.2.3-.4.6-.6 1-.9.4-.2.9-.3 1.5-.3.3 0 .5 0 .8.1.3.1.5.1.8.3.3.1.5.3.7.5.2.2.4.5.5.8l2.2-1.6c-.4-.8-1.1-1.5-1.9-2-.9-.5-1.9-.8-3.1-.8-1 0-1.9.2-2.7.6-.8.4-1.4.8-2 1.4-.5.6-1 1.3-1.2 2-.3.8-.4 1.5-.4 2.3 0 .8.2 1.6.5 2.4.3.8.7 1.5 1.3 2.1.6.6 1.2 1.1 2 1.5.8.4 1.6.6 2.5.6.5 0 1.1-.1 1.6-.2s1.1-.3 1.5-.6c.5-.2.9-.6 1.3-.9.4-.4.7-.8.8-1.2L25.5 39z"/><path id="path3_fill_1_" class="st0" d="M40.6 34.6c-.3-.8-.7-1.5-1.3-2.1-.5-.6-1.2-1.1-2-1.5-.8-.4-1.6-.6-2.6-.6-.9 0-1.8.2-2.5.5-.8.3-1.4.8-2 1.4-.6.6-1 1.3-1.3 2-.3.8-.5 1.6-.5 2.4 0 .8.2 1.6.5 2.4.3.8.7 1.5 1.3 2.1.5.6 1.2 1.1 2 1.4.8.4 1.6.6 2.6.6.9 0 1.8-.2 2.5-.5.8-.4 1.4-.8 2-1.4.6-.6 1-1.3 1.3-2 .3-.8.5-1.6.5-2.4 0-.7-.2-1.5-.5-2.3zm-2.7 3.7c-.1.5-.3.9-.6 1.2-.3.4-.6.7-1 .9-.4.2-.9.3-1.5.3-.5 0-1-.1-1.4-.3-.4-.2-.8-.5-1-.9-.3-.4-.5-.8-.6-1.2-.1-.5-.2-.9-.2-1.4 0-.5.1-.9.2-1.4.1-.5.3-.9.6-1.2.3-.4.6-.6 1-.9.4-.2.9-.3 1.5-.3.5 0 1 .1 1.4.3.4.2.8.5 1 .8.3.3.5.8.6 1.2.1.5.2.9.2 1.4 0 .6-.1 1.1-.2 1.5z"/><path id="path4_fill_1_" class="st0" d="M43 44.3l.2-.2c.1-.1.2-.1.3-.2.1-.1.2-.1.3-.2.1-.1.2-.1.3-.2.1-.1.2-.2.4-.2l.3-.3c.1-.1.2-.2.2-.4.1-.1.1-.3.1-.5 0-.4-.2-.8-.5-1.1-.3-.3-.8-.4-1.4-.4-.2 0-.5 0-.7.1-.2 0-.4.1-.6.2-.2.1-.4.2-.5.3-.2.1-.3.2-.4.3l.9 1c.2-.2.3-.3.5-.4.2-.1.4-.2.6-.2.2 0 .4 0 .5.1.1.1.2.2.2.4 0 .1 0 .1-.1.2 0 .1-.1.1-.2.2s-.2.2-.4.3c-.2.1-.4.2-.7.4-.2.1-.4.3-.6.4-.2.1-.3.3-.4.5-.1.2-.2.4-.2.6 0 .2-.1.4-.1.7h4.2v-1.2H43z"/><path id="path5_fill_1_" class="st0" d="M6.9 20.5c-.1.8.5 1.5 1.3 1.4.8 0 1.6-.7 1.6-1.5.6-5.6 5.7-10.4 11.3-10.6.4 0 .8-.2 1.1-.5.3-.3.5-.7.5-1.1.1-.8-.5-1.5-1.3-1.4-7.1.3-13.7 6.4-14.5 13.7z"/><path id="path6_fill_1_" class="st0" d="M22.3 0C11.2.4 1.2 9.7 0 20.7c-.1.8.5 1.5 1.3 1.4.8 0 1.6-.7 1.6-1.5.5-4.6 2.7-8.9 6.3-12.2C12.9 5.1 17.4 3.1 22 3c.4 0 .8-.2 1.1-.5.3-.3.5-.7.5-1.1.1-.8-.5-1.4-1.3-1.4z"/></svg>